<svg width="20" height="20" viewBox="0 0 20 20" fill="none" xmlns="http://www.w3.org/2000/svg">
<g clip-path="url(#clip0_8_32)">
<path d="M5.63583 8.36334C5.63583 8.61 5.6625 8.80917 5.70917 8.955C5.7625 9.10167 5.82917 9.26167 5.9225 9.435C5.95583 9.4875 5.96917 9.54084 5.96917 9.5875C5.96917 9.65417 5.92917 9.72084 5.8425 9.7875L5.42333 10.0667C5.37267 10.1032 5.31241 10.1241 5.25 10.1267C5.18333 10.1267 5.11667 10.0933 5.05083 10.0333C4.96131 9.93705 4.88123 9.8324 4.81167 9.72084C4.73717 9.59303 4.66822 9.46208 4.605 9.32834C4.08667 9.94 3.43417 10.2458 2.64917 10.2458C2.09083 10.2458 1.645 10.0867 1.31917 9.7675C0.993334 9.4475 0.827501 9.0225 0.827501 8.49C0.827501 7.925 1.02667 7.465 1.4325 7.12C1.83833 6.77417 2.37667 6.60084 3.06167 6.60084C3.28833 6.60084 3.52083 6.62084 3.76667 6.65417C4.01333 6.6875 4.26667 6.74084 4.53167 6.80084V6.315C4.53167 5.80917 4.42583 5.45667 4.21917 5.25084C4.00667 5.04417 3.6475 4.945 3.13583 4.945C2.9025 4.945 2.6625 4.97084 2.41667 5.03084C2.17083 5.09084 1.93083 5.16417 1.69833 5.2575C1.62253 5.29145 1.54458 5.3204 1.465 5.34417C1.43073 5.35522 1.39514 5.36166 1.35917 5.36334C1.26583 5.36334 1.21917 5.29667 1.21917 5.1575V4.83167C1.21917 4.725 1.2325 4.645 1.26583 4.59834C1.31617 4.53784 1.38015 4.49014 1.4525 4.45917C1.685 4.33917 1.96417 4.23917 2.29 4.15917C2.62918 4.07234 2.97823 4.03004 3.32833 4.03334C4.12 4.03334 4.69833 4.21334 5.07083 4.5725C5.43667 4.93084 5.6225 5.47667 5.6225 6.20834V8.36334H5.63583ZM2.93583 9.375C3.155 9.375 3.38083 9.335 3.62083 9.255C3.86 9.175 4.07333 9.02917 4.2525 8.83C4.35917 8.70334 4.43917 8.56334 4.47917 8.40334C4.51833 8.24417 4.54583 8.05084 4.54583 7.825V7.54584C4.34395 7.49662 4.13946 7.45879 3.93333 7.4325C3.72604 7.40617 3.5173 7.39281 3.30833 7.3925C2.8625 7.3925 2.53667 7.47917 2.31667 7.65917C2.0975 7.83834 1.99167 8.09084 1.99167 8.42334C1.99167 8.73584 2.07083 8.96917 2.2375 9.12834C2.39667 9.295 2.62917 9.375 2.93583 9.375ZM8.2775 10.0933C8.1575 10.0933 8.0775 10.0733 8.02417 10.0267C7.97083 9.98667 7.92417 9.89334 7.88417 9.7675L6.32167 4.625C6.29127 4.53878 6.27113 4.44927 6.26167 4.35834C6.26167 4.25167 6.315 4.19167 6.42083 4.19167H7.07333C7.19917 4.19167 7.28583 4.2125 7.33167 4.25834C7.38583 4.29834 7.42583 4.39167 7.465 4.51834L8.58333 8.92167L9.62083 4.51834C9.65417 4.385 9.69417 4.29834 9.74667 4.25834C9.82662 4.20931 9.91971 4.18603 10.0133 4.19167H10.545C10.6717 4.19167 10.7583 4.2125 10.8117 4.25834C10.8642 4.29834 10.9117 4.39167 10.9375 4.51834L11.9883 8.975L13.1392 4.51834C13.1792 4.385 13.2258 4.29834 13.2725 4.25834C13.3497 4.20933 13.4404 4.18599 13.5317 4.19167H14.1508C14.2567 4.19167 14.3175 4.24584 14.3175 4.35834C14.3175 4.39167 14.31 4.425 14.3033 4.465C14.2929 4.52187 14.2773 4.57766 14.2567 4.63167L12.6542 9.77334C12.6142 9.90667 12.5675 9.9925 12.5142 10.0325C12.4391 10.0807 12.3507 10.104 12.2617 10.0992H11.6892C11.5633 10.0992 11.4767 10.0792 11.4225 10.0325C11.37 9.98584 11.3233 9.89917 11.2975 9.76584L10.2658 5.47584L9.24083 9.75917C9.2075 9.8925 9.16833 9.97917 9.11583 10.0258C9.06167 10.0725 8.96833 10.0925 8.84917 10.0925L8.2775 10.0933ZM16.8242 10.2725C16.4783 10.2725 16.1325 10.2325 15.8 10.1533C15.4675 10.0733 15.2083 9.98667 15.035 9.88667C14.9283 9.8275 14.8558 9.76084 14.8292 9.70084C14.8032 9.64201 14.7896 9.57848 14.7892 9.51417V9.175C14.7892 9.03584 14.8425 8.96917 14.9417 8.96917C14.9817 8.96917 15.0217 8.97584 15.0617 8.98917C15.1017 9.0025 15.1617 9.02917 15.2283 9.05584C15.4542 9.15584 15.7 9.235 15.96 9.28834C16.2258 9.34167 16.485 9.36834 16.7517 9.36834C17.17 9.36834 17.4967 9.295 17.7225 9.14834C17.8308 9.08293 17.9198 8.99004 17.9805 8.8791C18.0413 8.76815 18.0716 8.64311 18.0683 8.51667C18.0708 8.43103 18.0562 8.34576 18.0254 8.2658C17.9947 8.18583 17.9484 8.11277 17.8892 8.05084C17.7692 7.925 17.5425 7.81167 17.2167 7.705L16.2525 7.405C15.7667 7.2525 15.4075 7.02667 15.1883 6.7275C14.9738 6.45141 14.8566 6.11213 14.855 5.7625C14.855 5.48334 14.9158 5.2375 15.035 5.02417C15.155 4.81167 15.3142 4.625 15.5142 4.47917C15.7142 4.32584 15.9392 4.2125 16.2058 4.13334C16.4725 4.05334 16.7517 4.02 17.0442 4.02C17.19 4.02 17.3433 4.02667 17.49 4.04667C17.6425 4.06667 17.7817 4.09334 17.9217 4.12C18.055 4.15334 18.1817 4.18667 18.3008 4.22584C18.4208 4.26584 18.5142 4.30584 18.5808 4.34584C18.6594 4.38537 18.7278 4.44239 18.7808 4.5125C18.8238 4.57722 18.8446 4.65413 18.84 4.73167V5.04417C18.84 5.18417 18.7867 5.2575 18.6867 5.2575C18.5981 5.24735 18.5124 5.22019 18.4342 5.1775C18.0323 4.99998 17.5968 4.91157 17.1575 4.91834C16.7783 4.91834 16.4783 4.9775 16.2725 5.10417C16.0658 5.23084 15.96 5.42334 15.96 5.69584C15.96 5.8825 16.0267 6.0425 16.16 6.16834C16.2925 6.295 16.5383 6.42167 16.8908 6.535L17.8358 6.83334C18.3142 6.98667 18.6608 7.2 18.8667 7.4725C19.0725 7.745 19.1725 8.0575 19.1725 8.40334C19.1725 8.68917 19.1125 8.94917 19 9.175C18.88 9.40167 18.72 9.60084 18.5142 9.76084C18.3075 9.9275 18.0617 10.0467 17.7758 10.1333C17.4758 10.2258 17.1642 10.2725 16.8242 10.2725ZM18.0817 13.5058C15.8933 15.1225 12.7133 15.98 9.98 15.98C6.14833 15.98 2.69667 14.5633 0.0883343 12.2083C-0.117499 12.0225 0.0683343 11.7692 0.315001 11.9158C3.135 13.5517 6.61417 14.5433 10.2125 14.5433C12.6408 14.5433 15.3075 14.0375 17.7625 13C18.1283 12.8333 18.4408 13.2392 18.0817 13.5058ZM18.9933 12.4675C18.7133 12.1092 17.1433 12.295 16.4317 12.3817C16.2192 12.4083 16.1858 12.2217 16.3792 12.0817C17.6292 11.2042 19.685 11.4567 19.9242 11.7492C20.1633 12.0492 19.8575 14.1042 18.6867 15.0883C18.5075 15.2417 18.3342 15.1617 18.4142 14.9625C18.6808 14.3042 19.2725 12.8208 18.9933 12.4675Z" fill="white"/>
</g>
<defs>
<clipPath id="clip0_8_32">
<rect width="20" height="20" fill="white"/>
</clipPath>
</defs>
</svg>
