<svg width="8" height="9" viewBox="0 0 8 9" fill="none" xmlns="http://www.w3.org/2000/svg">
<path d="M6.65167 0.964466L4.00002 3.61612L1.34837 0.964466C1.10383 0.719925 0.706084 0.722871 0.464489 0.964466C0.219948 1.20901 0.219948 1.60381 0.464489 1.84835L3.11614 4.5L0.464489 7.15165C0.219948 7.39619 0.219948 7.79099 0.464489 8.03553C0.706084 8.27713 1.10383 8.28007 1.34837 8.03553L4.00002 5.38388L6.65167 8.03553C6.89327 8.27713 7.29102 8.28007 7.53556 8.03553C7.77715 7.79394 7.77715 7.39324 7.53556 7.15165L4.88391 4.5L7.53556 1.84835C7.77715 1.60676 7.77715 1.20606 7.53556 0.964466C7.29102 0.719925 6.89327 0.722872 6.65167 0.964466Z" fill="white"/>
</svg>
