<svg width="20" height="20" viewBox="0 0 20 20" fill="none" xmlns="http://www.w3.org/2000/svg">
<g clip-path="url(#clip0_8_30)">
<path d="M19.6217 9.10802L10.8892 0.376356C10.3858 -0.126144 9.57083 -0.126144 9.06583 0.376356L7.25667 2.18886L9.55667 4.48886C10.0942 4.30969 10.7058 4.43052 11.1308 4.85636C11.5608 5.28552 11.6792 5.90469 11.4958 6.43969L13.7108 8.65636C14.2483 8.47052 14.8667 8.59136 15.2942 9.01886C15.895 9.61886 15.895 10.5889 15.2942 11.1889C14.695 11.788 13.7267 11.788 13.1275 11.1889C12.6783 10.738 12.5658 10.0747 12.7908 9.52552L10.7167 7.46219V12.8997C10.8633 12.9714 11.0017 13.0689 11.1233 13.1897C11.7175 13.7905 11.7175 14.7589 11.1233 15.3564C10.5242 15.9572 9.54917 15.9572 8.94917 15.3564C8.35 14.7572 8.35 13.7905 8.94917 13.1914C9.10083 13.0414 9.27167 12.928 9.45333 12.853V7.36219C9.2725 7.28636 9.1 7.17719 8.95333 7.02802C8.49917 6.57386 8.39 5.90969 8.62333 5.35386L6.36333 3.08302L0.375 9.06719C-0.125 9.57136 -0.125 10.3872 0.375 10.8914L9.10833 19.6222C9.61167 20.1255 10.4267 20.1255 10.93 19.6222L19.6217 10.9305C20.1258 10.428 20.1258 9.61219 19.6217 9.10802Z" fill="white"/>
</g>
<defs>
<clipPath id="clip0_8_30">
<rect width="20" height="20" fill="white"/>
</clipPath>
</defs>
</svg>
