<svg width="19" height="19" viewBox="0 0 19 19" fill="none" xmlns="http://www.w3.org/2000/svg">
<g clip-path="url(#clip0_4_4)">
<path d="M8.125 15.0417C4.16667 16.2292 4.16667 13.0625 2.58334 12.6667M13.6667 17.4167V14.3529C13.6964 13.9754 13.6454 13.5959 13.5171 13.2397C13.3887 12.8834 13.1861 12.5585 12.9225 12.2867C15.4083 12.0096 18.0208 11.0675 18.0208 6.74499C18.0206 5.63969 17.5955 4.57677 16.8333 3.77624C17.1942 2.80923 17.1687 1.74035 16.7621 0.791658C16.7621 0.791658 15.8279 0.514575 13.6667 1.96332C11.8522 1.47156 9.9395 1.47156 8.125 1.96332C5.96375 0.514575 5.02959 0.791658 5.02959 0.791658C4.62297 1.74035 4.59745 2.80923 4.95834 3.77624C4.19052 4.58271 3.76492 5.65523 3.77084 6.76874C3.77084 11.0596 6.38334 12.0017 8.86917 12.3104C8.60871 12.5796 8.40784 12.9005 8.27962 13.2524C8.15141 13.6043 8.09873 13.9793 8.125 14.3529V17.4167" stroke="black" stroke-width="2" stroke-linecap="round" stroke-linejoin="round"/>
</g>
<defs>
<clipPath id="clip0_4_4">
<rect width="19" height="19" fill="white"/>
</clipPath>
</defs>
</svg>
