<svg width="20" height="20" viewBox="0 0 20 20" fill="none" xmlns="http://www.w3.org/2000/svg">
<path d="M7.37583 15.4667C7.37583 15.4667 6.61167 15.9117 7.92 16.0617C9.505 16.2433 10.315 16.2175 12.0608 15.8858C12.0608 15.8858 12.5208 16.1742 13.1617 16.4242C9.24583 18.1017 4.30083 16.3258 7.37583 15.4667ZM6.89667 13.2775C6.89667 13.2775 6.04 13.9117 7.34833 14.0475C9.04167 14.2217 10.3783 14.2367 12.6925 13.7908C12.6925 13.7908 13.0125 14.115 13.515 14.2925C8.7825 15.6767 3.50917 14.4008 6.89667 13.2775ZM10.93 9.5625C11.895 10.6733 10.6767 11.6733 10.6767 11.6733C10.6767 11.6733 13.1258 10.4083 12.0008 8.825C10.95 7.34833 10.1442 6.615 14.5067 4.085C14.5067 4.08417 7.66 5.79417 10.93 9.5625ZM16.1083 17.0867C16.1083 17.0867 16.6742 17.5525 15.4858 17.9125C13.2258 18.5975 6.07917 18.8033 4.095 17.94C3.38167 17.6292 4.72 17.1983 5.14 17.1083C5.57917 17.0133 5.83 17.0308 5.83 17.0308C5.03583 16.4717 0.700001 18.1283 3.6275 18.6033C11.6108 19.8975 18.1792 18.02 16.1083 17.0867ZM7.74333 11.0083C7.74333 11.0083 4.10833 11.8717 6.45667 12.185C7.4475 12.3175 9.42417 12.2875 11.265 12.1333C12.77 12.0067 14.28 11.7358 14.28 11.7358C14.28 11.7358 13.7492 11.9625 13.365 12.225C9.67417 13.1958 2.54333 12.7442 4.59667 11.7517C6.33167 10.9133 7.74333 11.0083 7.74333 11.0083ZM14.2633 14.6533C18.0158 12.7033 16.2808 10.8292 15.07 11.0825C14.7742 11.1442 14.6408 11.1975 14.6408 11.1975C14.6408 11.1975 14.7508 11.025 14.9617 10.95C17.3575 10.1075 19.2 13.4342 14.1883 14.7517C14.1883 14.7508 14.2467 14.7 14.2633 14.6533ZM12.0008 0C12.0008 0 14.0792 2.07833 10.03 5.275C6.78334 7.83917 9.29 9.30167 10.0292 10.9717C8.13417 9.26083 6.74333 7.75667 7.67583 6.35583C9.04584 4.29833 12.84 3.30167 12.0008 0M8.11167 19.9367C11.7133 20.1675 17.2442 19.8092 17.375 18.105C17.375 18.105 17.1233 18.7508 14.3983 19.2642C11.325 19.8425 7.5325 19.775 5.28417 19.4042C5.28417 19.4033 5.745 19.785 8.11167 19.9367Z" fill="white"/>
</svg>
