<svg width="20" height="20" viewBox="0 0 20 20" fill="none" xmlns="http://www.w3.org/2000/svg">
<g clip-path="url(#clip0_9_3)">
<path fill-rule="evenodd" clip-rule="evenodd" d="M18.4223 15.5789C17.3346 15.5486 16.4907 15.6601 15.7834 15.9576C15.5798 16.0395 15.253 16.0395 15.2261 16.2958C15.335 16.4033 15.3481 16.5794 15.4435 16.7284C15.6066 16.999 15.8926 17.3635 16.1508 17.5525L17.0212 18.1745C17.5516 18.4987 18.1501 18.6881 18.6668 19.0126C18.9662 19.2019 19.2653 19.4452 19.5647 19.6482C19.7171 19.7564 19.8095 19.9324 20 19.9997V19.9588C19.9049 19.8376 19.8775 19.6618 19.7827 19.5261L19.3741 19.1344C18.9799 18.6072 18.49 18.1473 17.9596 17.7691C17.5242 17.4716 16.5724 17.0662 16.3956 16.5663L16.3688 16.536C16.6675 16.5057 17.0212 16.4006 17.3071 16.3194C17.7699 16.1982 18.1913 16.2249 18.6668 16.1034L19.3202 15.914V15.7928C19.0754 15.5495 18.8985 15.225 18.6403 14.9954C17.9468 14.4007 17.1846 13.8192 16.3956 13.3327C15.974 13.0624 15.4298 12.8864 14.981 12.657C14.8173 12.5758 14.5457 12.5352 14.4505 12.4001C14.2051 12.1032 14.0695 11.7108 13.8926 11.3591L12.7774 9.00706C12.5326 8.47988 12.3826 7.9527 12.0839 7.46612C10.6827 5.16805 9.15898 3.77587 6.81943 2.41035C6.31641 2.12646 5.71795 2.00436 5.0817 1.85591L4.06161 1.80137C3.84363 1.70684 3.62626 1.44992 3.43572 1.32812C2.66045 0.84154 0.66083 -0.212819 0.089206 1.17663C-0.278158 2.05526 0.633391 2.92026 0.94283 3.36655C1.17453 3.6774 1.4733 4.02885 1.63701 4.38031C1.72847 4.60996 1.75896 4.85356 1.85438 5.09685C2.07175 5.69159 2.27601 6.3542 2.56167 6.90865C2.71411 7.19253 2.87416 7.49036 3.0647 7.74698C3.17354 7.89847 3.36408 7.96331 3.40463 8.2066C3.21408 8.47716 3.20098 8.88224 3.09214 9.22066C2.60222 10.7483 2.79276 12.6407 3.48633 13.7653C3.70431 14.1031 4.21801 14.8469 4.91494 14.5627C5.52711 14.3195 5.39053 13.549 5.56735 12.873C5.60851 12.711 5.58107 12.6028 5.66247 12.4943V12.5246L6.22037 13.6465C6.642 14.3089 7.37673 14.9984 7.9886 15.4583C8.31481 15.7016 8.57333 16.121 8.98124 16.2694V16.2285H8.95442C8.87271 16.1073 8.75015 16.0528 8.64132 15.9583C8.39651 15.715 8.12457 15.4174 7.93403 15.1472C7.36301 14.3903 6.85998 13.552 6.41091 12.687C6.19294 12.268 6.00239 11.8084 5.82618 11.3894C5.74387 11.227 5.74387 10.9834 5.6082 10.9028C5.40394 11.1997 5.10517 11.4572 4.95487 11.822C4.69635 12.4031 4.66952 13.1197 4.5744 13.8632C4.51952 13.8768 4.54391 13.8632 4.51953 13.8935C4.08479 13.7856 3.93479 13.339 3.77169 12.9609C3.36378 12.0011 3.29548 10.4601 3.64913 9.35155C3.74425 9.06766 4.15277 8.17539 3.98967 7.90514C3.90735 7.64821 3.63602 7.49975 3.48602 7.29676C3.3092 7.03984 3.11927 6.71565 2.99671 6.43176C2.67051 5.67432 2.5074 4.83659 2.15346 4.07945C1.98974 3.728 1.70439 3.36291 1.47299 3.03873C1.21447 2.67364 0.929417 2.41672 0.725157 1.98437C0.657172 1.83288 0.562053 1.59232 0.67089 1.42992C0.697718 1.32176 0.752595 1.27843 0.860822 1.25419C1.03764 1.10271 1.54128 1.29479 1.71811 1.37539C2.22113 1.57838 2.64277 1.76744 3.0644 2.05102C3.25494 2.18615 3.4592 2.44308 3.70401 2.51094H3.98997C4.42532 2.60547 4.91463 2.54124 5.32224 2.66243C6.04325 2.89269 6.69596 3.23021 7.28131 3.5956C9.06295 4.71752 10.5324 6.31269 11.525 8.21902C11.6882 8.52987 11.7561 8.81376 11.9061 9.13825C12.1921 9.80086 12.5457 10.4765 12.8308 11.1258C13.1168 11.7611 13.3887 12.4104 13.7966 12.9376C14.0009 13.2215 14.8167 13.3699 15.1838 13.5187C15.456 13.6399 15.8773 13.7489 16.1227 13.8974C16.5849 14.1813 17.0474 14.5058 17.4824 14.8166C17.6998 14.9784 18.3803 15.3166 18.4208 15.5862L18.4223 15.5789ZM4.55093 3.83192C4.363 3.83027 4.17565 3.85298 3.99363 3.89948V3.92978H4.02046C4.12929 4.14611 4.31984 4.29487 4.45581 4.48423L4.7689 5.1332L4.79573 5.10291C4.98627 4.96778 5.0817 4.75145 5.0817 4.42727C4.99999 4.33274 4.98658 4.23791 4.91859 4.14338C4.83689 4.00825 4.66007 3.94039 4.55093 3.83253V3.83192Z" fill="white"/>
</g>
<defs>
<clipPath id="clip0_9_3">
<rect width="20" height="20" fill="white"/>
</clipPath>
</defs>
</svg>
