<svg width="19" height="19" viewBox="0 0 19 19" fill="none" xmlns="http://www.w3.org/2000/svg">
<g clip-path="url(#clip0_4_2)">
<path d="M18.2083 2.375C17.4502 2.90975 16.6108 3.31875 15.7225 3.58625C15.2457 3.03803 14.6121 2.64946 13.9072 2.4731C13.2024 2.29675 12.4604 2.34111 11.7816 2.60019C11.1029 2.85927 10.52 3.32056 10.1119 3.92169C9.70387 4.52281 9.49026 5.23476 9.5 5.96125V6.75291C8.10875 6.78899 6.73017 6.48043 5.48705 5.85472C4.24392 5.22902 3.17483 4.30558 2.375 3.16666C2.375 3.16666 -0.791669 10.2917 6.33333 13.4583C4.70292 14.5651 2.76066 15.12 0.791664 15.0417C7.91666 19 16.625 15.0417 16.625 5.9375C16.6243 5.71698 16.6031 5.49701 16.5617 5.28041C17.3696 4.48359 17.9398 3.47756 18.2083 2.375V2.375Z" stroke="white" stroke-width="2" stroke-linecap="round" stroke-linejoin="round"/>
</g>
<defs>
<clipPath id="clip0_4_2">
<rect width="19" height="19" fill="white"/>
</clipPath>
</defs>
</svg>
